<svg version="1.1" xmlns="http://www.w3.org/2000/svg" xmlns:xlink="http://www.w3.org/1999/xlink" viewBox="0 0 172 172"><g fill="none" fill-rule="nonzero" stroke="none" stroke-width="none" stroke-linecap="none" stroke-linejoin="none" stroke-miterlimit="10" stroke-dasharray="" stroke-dashoffset="0" font-family="none" font-weight="none" font-size="none" text-anchor="none" style="mix-blend-mode: normal"><path d="M0,172v-172h172v172z" fill="none" stroke="none" stroke-width="1" stroke-linecap="butt" stroke-linejoin="miter"></path><g><path d="M115.83125,139.75h-59.6625c-13.16875,0 -23.91875,-10.75 -23.91875,-23.91875v-59.6625c0,-13.16875 10.75,-23.91875 23.91875,-23.91875h59.6625c13.16875,0 23.91875,10.75 23.91875,23.91875v59.6625c0,13.16875 -10.75,23.91875 -23.91875,23.91875z" fill="#ffffff" stroke="none" stroke-width="1" stroke-linecap="butt" stroke-linejoin="miter"></path><path d="M115.83125,139.75h-59.6625c-13.16875,0 -23.91875,-10.75 -23.91875,-23.91875v-59.6625c0,-13.16875 10.75,-23.91875 23.91875,-23.91875h59.6625c13.16875,0 23.91875,10.75 23.91875,23.91875v59.6625c0,13.16875 -10.75,23.91875 -23.91875,23.91875z" fill="#ffffff" stroke="none" stroke-width="1" stroke-linecap="butt" stroke-linejoin="miter"></path><path d="M32.25,56.16875v19.75313c19.48438,-14.91562 55.3625,-33.45937 106.82813,-25.53125c-2.6875,-10.48125 -11.95938,-18.14062 -23.24688,-18.14062h-59.6625c-13.16875,0 -23.91875,10.75 -23.91875,23.91875z" fill="#ff0000" stroke="none" stroke-width="1" stroke-linecap="butt" stroke-linejoin="miter"></path><path d="M71.89063,65.84375v40.3125l34.9375,-20.15625z" fill="#ff0000" stroke="none" stroke-width="1" stroke-linecap="butt" stroke-linejoin="miter"></path><path d="M115.83125,139.75h-59.6625c-13.16875,0 -23.91875,-10.75 -23.91875,-23.91875v-59.6625c0,-13.16875 10.75,-23.91875 23.91875,-23.91875h59.6625c13.16875,0 23.91875,10.75 23.91875,23.91875v59.6625c0,13.16875 -10.75,23.91875 -23.91875,23.91875z" fill="none" stroke="#606060" stroke-width="8.0625" stroke-linecap="round" stroke-linejoin="round"></path></g></g></svg>